{"title":"The Chronicles Of Narnia The Voyage Of The Dawn Treader *2010* [","uid":6354310,"size":1547494318,"categoryP":"video","categoryS":"movies","magnet":"?xt=urn:btih:692c93b4c88783af942b2d1163a289b2b350e2bb&amp;dn=The+Chronicles+Of+Narnia+The+Voyage+Of+The+Dawn+Treader+%2A2010%2A+%5B&amp;tr=udp%3A%2F%2Ftracker.openbittorrent.com%3A80&amp;tr=udp%3A%2F%2Fopen.demonii.com%3A1337&amp;tr=udp%3A%2F%2Ftracker.coppersurfer.tk%3A6969&amp;tr=udp%3A%2F%2Fexodus.desync.com%3A6969","seeders":2,"leechers":1,"uploader":"miguel1983","files":-1,"time":1304099100,"description":" &lt;a href=&quot;http://img508.imageshack.us/img508/864/thechroniclesofnarniathu.jpg&quot; rel=&quot;nofollow&quot; target=&quot;_NEW&quot;&gt;http://img508.imageshack.us/img508/864/thechroniclesofnarniathu.jpg&lt;/a&gt;\n\nCountry.......: USA\nGenre.........: Fantasy, Family, Adventure\nDate release..: 02.12.2010 [World]\nDirector......: Michael Apted\nWriters.......: Christopher Markus, Stephen McFeely\nDuration......: 108 min.\nMore..........: http://www.imdb.com/title/tt0980970\nTrailer.......: http://www.imdb.com/video/screenplay/vi1027709209\nTrailer.......:\n\nPilot :\nLucy and Edmund Pevensie return to Narnia with their cousin Eustace where they meet up with Prince Caspian for a trip across the sea aboard the royal ship The Dawn Treader. Along the way they encounter dragons, dwarves, merfolk, and a band of lost warriors before reaching the edge of the world. \n\nCats :\nGeorgie Henley   \t ...  \tLucy Pevensie\nSkandar Keynes \t... \tEdmund Pevensie\nBen Barnes \t... \tCaspian\nWill Poulter \t... \tEustace Clarence Scrubb\nGary Sweet \t... \tDrinian\nTerry Norris \t... \tLord Bern\nBruce Spence \t... \tLord Rhoop\nBille Brown \t... \tCoriakin\nLaura Brent \t... \tLiliandil\nColin Moody \t... \tAuctioneer\nTilda Swinton \t... \tThe White Witch\nAnna Popplewell \t... \tSusan Pevensie\nWilliam Moseley \t... \tPeter Pevensie\nShane Rangi \t... \tTavros\nArthur Angel \t... \tRhince \n\nData Technical :\n!!! SAMPLE !!!\nAudio.....: Dubbing Polish\nSubtitles.: None\nFormat                           : AVI\nFormat/Info                      : Audio Video Interleave\nFile size                        : 1.43 GiB\nDuration                         : 1h 48mn\nOverall bit rate                 : 1 901 Kbps\nWriting application              : VirtualDubMod 1.5.10.2 (build 2540/release)\nWriting library                  : VirtualDubMod build 2540/release\nVideo\nID                               : 0\nFormat                           : MPEG-4 Visual\nFormat profile                   : Advanced Simple@L5\nFormat settings, BVOP            : Yes\nFormat settings, QPel            : No\nFormat settings, GMC             : No warppoints\nFormat settings, Matrix          : Default (MPEG)\nCodec ID                         : XVID\nCodec ID/Hint                    : XviD\nDuration                         : 1h 48mn\nBit rate                         : 1 507 Kbps\nWidth                            : 720 pixels\nHeight                           : 400 pixels\nDisplay aspect ratio             : 16:9\nFrame rate                       : 25.000 fps\nOriginal frame rate              : 23.976 fps\nColor space                      : YUV\nChroma subsampling               : 4:2:0\nBit depth                        : 8 bits\nScan type                        : Progressive\nBits/(Pixel*Frame)               : 0.209\nStream size                      : 1.14 GiB (79%)\nWriting library                  : XviD 1.2.1 (UTC 2008-12-04)\nAudio\nID                               : 1\nFormat                           : AC-3\nFormat/Info                      : Audio Coding 3\nMode extension                   : CM (complete main)\nCodec ID                         : 2000\nDuration                         : 1h 48mn\nBit rate mode                    : Constant\nBit rate                         : 384 Kbps\nChannel(s)                       : 6 channels\nChannel positions                : Front: L C R, Side: L R, LFE\nSampling rate                    : 48.0 KHz\nBit depth                        : 16 bits\nStream size                      : 297 MiB (20%)\nAlignment                        : Split accross interleaves\nInterleave, duration             : 40 ms (1.00 video frame)\nInterleave, preload duration     : 500 ms\n\nScreen : &lt;a href=&quot;\nhttp://img17.imageshack.us/img17/857/thechroniclesofnarniathl.jpg&quot; rel=&quot;nofollow&quot; target=&quot;_NEW&quot;&gt;\nhttp://img17.imageshack.us/img17/857/thechroniclesofnarniathl.jpg&lt;/a&gt; &lt;a href=&quot;\nhttp://img197.imageshack.us/img197/2829/thechroniclesofnarniathh.jpg&quot; rel=&quot;nofollow&quot; target=&quot;_NEW&quot;&gt;\nhttp://img197.imageshack.us/img197/2829/thechroniclesofnarniathh.jpg&lt;/a&gt; &lt;a href=&quot;\nhttp://img838.imageshack.us/img838/3356/thechroniclesofnarniathi.jpg&quot; rel=&quot;nofollow&quot; target=&quot;_NEW&quot;&gt;\nhttp://img838.imageshack.us/img838/3356/thechroniclesofnarniathi.jpg&lt;/a&gt; &lt;a href=&quot;\nhttp://img94.imageshack.us/img94/1527/thechroniclesofnarniathk.jpg&quot; rel=&quot;nofollow&quot; target=&quot;_NEW&quot;&gt;\nhttp://img94.imageshack.us/img94/1527/thechroniclesofnarniathk.jpg&lt;/a&gt; &lt;a href=&quot;\nhttp://img715.imageshack.us/img715/4222/thechroniclesofnarniathro.jpg&quot; rel=&quot;nofollow&quot; target=&quot;_NEW&quot;&gt;\nhttp://img715.imageshack.us/img715/4222/thechroniclesofnarniathro.jpg&lt;/a&gt;","torrent":{"xt":"urn:btih:692c93b4c88783af942b2d1163a289b2b350e2bb","amp;dn":"The+Chronicles+Of+Narnia+The+Voyage+Of+The+Dawn+Treader+%2A2010%2A+%5B","amp;tr":["udp%3A%2F%2Ftracker.openbittorrent.com%3A80","udp%3A%2F%2Fopen.demonii.com%3A1337","udp%3A%2F%2Ftracker.coppersurfer.tk%3A6969","udp%3A%2F%2Fexodus.desync.com%3A6969"],"infoHash":"692c93b4c88783af942b2d1163a289b2b350e2bb","infoHashBuffer":{"type":"Buffer","data":[105,44,147,180,200,135,131,175,148,43,45,17,99,162,137,178,179,80,226,187]},"announce":[],"urlList":[]}}